<?xml version="1.0" encoding="UTF-8" standalone="no"?>
<!-- Generator: Adobe Illustrator 17.0.1, SVG Export Plug-In . SVG Version: 6.00 Build 0)  -->

<svg
   xmlns:dc="http://purl.org/dc/elements/1.1/"
   xmlns:cc="http://creativecommons.org/ns#"
   xmlns:rdf="http://www.w3.org/1999/02/22-rdf-syntax-ns#"
   xmlns:svg="http://www.w3.org/2000/svg"
   xmlns="http://www.w3.org/2000/svg"
   xmlns:sodipodi="http://sodipodi.sourceforge.net/DTD/sodipodi-0.dtd"
   xmlns:inkscape="http://www.inkscape.org/namespaces/inkscape"
   version="1.1"
   x="0px"
   y="0px"
   width="86px"
   height="86px"
   viewBox="0 0 86 86"
   enable-background="new 0 0 86 86"
   xml:space="preserve"
   id="svg4197"
   inkscape:version="0.91 r13725"
   sodipodi:docname="icon.svg"><metadata
     id="metadata4218"><rdf:RDF><cc:Work
         rdf:about=""><dc:format>image/svg+xml</dc:format><dc:type
           rdf:resource="http://purl.org/dc/dcmitype/StillImage" /></cc:Work></rdf:RDF></metadata><defs
     id="defs4216" /><sodipodi:namedview
     pagecolor="#ffffff"
     bordercolor="#666666"
     borderopacity="1"
     objecttolerance="10"
     gridtolerance="10"
     guidetolerance="10"
     inkscape:pageopacity="0"
     inkscape:pageshadow="2"
     inkscape:window-width="1920"
     inkscape:window-height="1021"
     id="namedview4214"
     showgrid="false"
     showguides="true"
     inkscape:guide-bbox="true"
     inkscape:zoom="8.5232558"
     inkscape:cx="43"
     inkscape:cy="38.030369"
     inkscape:window-x="0"
     inkscape:window-y="27"
     inkscape:window-maximized="1"
     inkscape:current-layer="Layer_1"><sodipodi:guide
       position="42.989724,49.318161"
       orientation="1,0"
       id="guide4250" /></sodipodi:namedview><g
     id="Layer_2"
     display="none" /><g
     id="Layer_1"><linearGradient
       id="SVGID_1_"
       gradientUnits="userSpaceOnUse"
       x1="0.7171"
       y1="85.2833"
       x2="73.1939"
       y2="12.8066"><stop
         offset="0"
         style="stop-color:#f47000;stop-opacity:1"
         id="stop4202" /><stop
         offset="1"
         style="stop-color:#ffcd00;stop-opacity:1"
         id="stop4206" /></linearGradient><path
       d="M43,0.3C19.418,0.3,0.3,19.418,0.3,43v41.277c0,0.786,0.637,1.423,1.423,1.423H43   c23.585,0,42.7-19.118,42.7-42.7C85.7,19.418,66.585,0.3,43,0.3z"
       id="path4208"
       fill="url(#SVGID_1_)" /><g
       id="g4210" /><path
       style="fill:#f4ffff;fill-opacity:1;stroke:#ffffff;stroke-width:0;stroke-miterlimit:4;stroke-dasharray:none;stroke-opacity:1"
       d="m 52.136092,12.571181 c -0.266065,-0.01989 -0.633468,0.165966 -0.937186,0.500362 l -11.831975,13.025298 -0.111192,0 -5.851456,-7.80128 c -0.21424,-0.28569 -0.59464,-0.325527 -0.853793,-0.08935 -0.259153,0.236177 -0.295647,0.655467 -0.08141,0.941158 l 5.212105,6.949472 -9.270598,0 c -5.90957,0 -10.666448,4.756879 -10.666448,10.66645 l 0,22.591745 c 0,5.90957 4.756878,10.666448 10.666448,10.666448 l 25.254387,0 c 5.90957,0 10.666448,-4.756878 10.666448,-10.666448 l 0,-22.591745 c 10e-7,-5.909571 -4.756878,-10.66645 -10.666448,-10.66645 l -12.713565,0 11.1132,-12.235043 c 0.404958,-0.445863 0.537526,-0.98065 0.297835,-1.199282 -0.05992,-0.05466 -0.137666,-0.08471 -0.226354,-0.09134 z m -21.559252,16.335233 20.923871,0 c 5.388138,0 9.725292,4.337154 9.725292,9.725292 l 0,13.456166 c 0,5.388138 -4.337154,9.725292 -9.725292,9.725292 l -20.923871,0 c -5.388139,0 -9.727278,-4.337154 -9.727278,-9.725292 l 0,-13.456166 c 0,-5.388138 4.339139,-9.725292 9.727278,-9.725292 z M 56.119133,63.89602 a 1.8436727,1.8432631 0 0 1 1.842603,1.842603 1.8436727,1.8432631 0 0 1 -1.842603,1.842604 1.8436727,1.8432631 0 0 1 -1.84459,-1.842604 1.8436727,1.8432631 0 0 1 1.84459,-1.842603 z m -4.282861,1.435562 a 1.104187,1.1039418 0 0 1 1.103972,1.103974 1.104187,1.1039418 0 0 1 -1.103972,1.103973 1.104187,1.1039418 0 0 1 -1.103974,-1.103973 1.104187,1.1039418 0 0 1 1.103974,-1.103974 z"
       id="rect4220"
       inkscape:connector-curvature="0" /></g></svg>